M48
METRIC,LZ,000.000
;FILE_FORMAT=3:3
;TYPE=PLATED
;Layer: PTH_Through
;EasyEDA v6.5.9, 2022-07-27 19:44:39
;76ed2510ce1c47f1be3c58ea14bf5d85,facc937cdf584d0a9360c289f8e84b41,10
;Gerber Generator version 0.2
;Holesize 1 = 0.305 mm
T01C0.305
;Holesize 2 = 0.400 mm
T02C0.400
;Holesize 3 = 0.900 mm
T03C0.900
;Holesize 4 = 1.200 mm
T04C1.200
;Holesize 5 = 1.551 mm
T05C1.551
;Holesize 6 = 2.000 mm
T06C2.000
%
G05
G90
T01
X-066270Y-072260
X-020170Y-077981
X-023160Y-080970
T02
X-096135Y-060907
X-096135Y-027887
X-096135Y-030427
X-096135Y-032967
X-096135Y-035507
X-096135Y-038047
X-096135Y-040586
X-096135Y-043126
X-096135Y-045666
X-096135Y-048206
X-096135Y-050747
X-096135Y-053287
X-096135Y-055827
X-096135Y-058367
X-096135Y-063447
X-003530Y-063453
X-003530Y-060913
X-003530Y-058373
X-003530Y-055833
X-003530Y-053293
X-003530Y-050753
X-003530Y-048213
X-003530Y-045673
X-003530Y-043133
X-003531Y-040593
X-003531Y-038053
X-003531Y-035513
X-003531Y-032973
X-003531Y-030433
X-003530Y-027893
X-006425Y-023998
X-008200Y-044470
X-007256Y-042983
X-008201Y-063470
X-059325Y-013710
X-082399Y-013470
X-060166Y-016302
X-084300Y-034070
X-081200Y-032469
X-062800Y-010270
X-039800Y-012770
X-038200Y-013670
X-035700Y-024370
X-016700Y-024370
X-054700Y-043370
X-051399Y-031270
X-046540Y-034870
X-046490Y-043790
X-005494Y-034416
X-008099Y-038771
X-005514Y-047296
X-022199Y-033269
X-019600Y-049600
X-021200Y-037600
X-021201Y-050869
X-039600Y-049670
X-040700Y-063470
X-042000Y-064970
X-093309Y-010559
X-081200Y-052370
X-094200Y-029570
X-061870Y-035530
X-061899Y-049670
X-059220Y-050940
X-043500Y-064370
X-039400Y-068500
X-081640Y-069260
X-064129Y-013310
X-062550Y-057470
X-077100Y-040170
X-077100Y-045070
X-005801Y-061169
X-005801Y-070770
X-078000Y-059208
X-079900Y-070470
X-016100Y-060670
X-016380Y-069270
X-075501Y-046970
X-073710Y-061490
X-075510Y-075110
X-072880Y-025200
X-075510Y-043350
X-073240Y-081000
X-092720Y-081100
X-091879Y-025189
X-056510Y-062390
X-056500Y-080514
X-037539Y-043759
X-037501Y-062390
X-037500Y-080310
X-018500Y-043382
X-018500Y-060160
X-019400Y-081000
X-018500Y-029163
X-030690Y-027200
X-030691Y-029370
X-037490Y-029370
X-074470Y-064390
X-056510Y-065451
X-037500Y-069000
X-080300Y-041600
X-081800Y-022680
X-004533Y-024008
X-087700Y-045200
X-080300Y-059900
X-045100Y-079700
X-028500Y-082200
X-083500Y-079700
X-064200Y-079700
X-064200Y-060700
X-068800Y-045700
X-007300Y-041700
X-045300Y-025200
X-045300Y-022700
X-036400Y-020400
X-044900Y-041700
X-062217Y-024979
X-064359Y-022747
X-011600Y-025200
X-082530Y-082240
X-028000Y-080600
X-007600Y-079700
X-045500Y-063200
X-027000Y-044000
X-049700Y-045400
X-094508Y-075547
X-064200Y-062500
X-004674Y-054832
X-083100Y-038500
X-087700Y-064400
X-028000Y-062700
X-051900Y-012300
X-051900Y-008000
X-021000Y-008900
X-021000Y-012100
X-053530Y-018370
X-052970Y-024190
X-052970Y-020750
X-088750Y-030420
X-083290Y-021210
X-086450Y-028890
X-018730Y-019240
X-084000Y-024670
X-026030Y-060700
T03
X-059240Y-070889
X-059240Y-081049
X-078300Y-011990
X-078300Y-022150
X-091600Y-008770
X-083980Y-008770
X-034610Y-008770
X-026990Y-008770
X-015610Y-008770
X-007990Y-008770
X-015610Y-027770
X-007990Y-027770
X-034610Y-027770
X-026990Y-027770
X-053610Y-027770
X-045990Y-027770
X-072610Y-027770
X-064990Y-027770
X-091610Y-027770
X-083990Y-027770
X-015610Y-046770
X-007990Y-046770
X-034610Y-046770
X-026990Y-046770
X-053610Y-046770
X-045990Y-046770
X-072610Y-046770
X-064990Y-046770
X-091610Y-046770
X-083990Y-046770
X-015610Y-065770
X-007990Y-065770
X-034610Y-065770
X-026990Y-065770
X-053610Y-065770
X-045990Y-065770
X-072610Y-065770
X-064990Y-065770
X-091610Y-065770
X-083990Y-065770
X-053610Y-008770
X-045990Y-008770
X-072610Y-008770
X-064990Y-008770
X-059270Y-065161
X-059270Y-058659
T04
X-057420Y-038740
X-057420Y-036200
X-057420Y-033660
X-057420Y-031120
X-057420Y-028580
X-057420Y-026040
X-057420Y-023500
X-057420Y-020960
X-057420Y-018420
X-057420Y-015880
X-057420Y-013340
X-057420Y-010800
X-042180Y-010800
X-042180Y-013340
X-042180Y-015880
X-042180Y-018420
X-042180Y-020960
X-042180Y-023500
X-042180Y-026040
X-042180Y-028580
X-042180Y-031120
X-042180Y-033660
X-042180Y-036200
X-042180Y-038740
T05
X-075780Y-069060
X-082130Y-071600
X-018790Y-069060
X-025140Y-071600
X-091635Y-014605
X-085285Y-012065
X-072635Y-014605
X-066285Y-012065
X-053635Y-014605
X-047285Y-012065
X-034635Y-014605
X-028285Y-012065
X-015635Y-014605
X-009285Y-012065
X-015635Y-033605
X-009285Y-031065
X-034635Y-033605
X-028285Y-031065
X-053635Y-033605
X-047285Y-031065
X-072635Y-033605
X-066285Y-031065
X-091635Y-033605
X-085285Y-031065
X-015635Y-052605
X-009285Y-050065
X-034635Y-052605
X-028285Y-050065
X-053635Y-052605
X-047285Y-050065
X-072635Y-052605
X-066285Y-050065
X-091635Y-052605
X-085285Y-050065
X-015635Y-071605
X-009285Y-069065
X-034635Y-071605
X-028285Y-069065
X-053635Y-071605
X-047285Y-069065
X-072635Y-071605
X-066285Y-069065
X-091635Y-071605
X-085285Y-069065
T06
X-078550Y-026670G85X-078050Y-026670
X-021575Y-026645G85X-021075Y-026645
X-021575Y-064645G85X-021075Y-064645
X-078614Y-064645G85X-078114Y-064645
M30
