M48
METRIC,LZ,000.000
;FILE_FORMAT=3:3
;TYPE=NON_PLATED
;Layer: NPTH_Through
;EasyEDA v6.5.9, 2022-07-27 19:44:39
;76ed2510ce1c47f1be3c58ea14bf5d85,facc937cdf584d0a9360c289f8e84b41,10
;Gerber Generator version 0.2
;Holesize 1 = 1.702 mm
T01C1.702
;Holesize 2 = 3.988 mm
T02C3.988
;Holesize 3 = 4.000 mm
T03C4.000
%
G05
G90
T01
X-073240Y-074140
X-083400Y-074140
X-016250Y-074140
X-026410Y-074140
X-092905Y-017144
X-082745Y-017144
X-073905Y-017144
X-063745Y-017144
X-054905Y-017144
X-044745Y-017144
X-035905Y-017144
X-025745Y-017144
X-016905Y-017144
X-006745Y-017144
X-016905Y-036144
X-006745Y-036144
X-035905Y-036144
X-025745Y-036144
X-054905Y-036144
X-044745Y-036144
X-073905Y-036144
X-063745Y-036144
X-092905Y-036144
X-082745Y-036144
X-016905Y-055144
X-006745Y-055144
X-035905Y-055144
X-025745Y-055144
X-054905Y-055144
X-044745Y-055144
X-073905Y-055144
X-063745Y-055144
X-092905Y-055144
X-082745Y-055144
X-016905Y-074144
X-006745Y-074144
X-035905Y-074144
X-025745Y-074144
X-054905Y-074144
X-044745Y-074144
X-073905Y-074144
X-063745Y-074144
X-092905Y-074144
X-082745Y-074144
T02
X-078320Y-074140
X-021330Y-074140
T03
X-087825Y-017144
X-068825Y-017144
X-049825Y-017144
X-030825Y-017144
X-011825Y-017144
X-011825Y-036144
X-030825Y-036144
X-049825Y-036144
X-068825Y-036144
X-087825Y-036144
X-011825Y-055144
X-030825Y-055144
X-049825Y-055144
X-068825Y-055144
X-087825Y-055144
X-011825Y-074144
X-030825Y-074144
X-049825Y-074144
X-068825Y-074144
X-087825Y-074144
M30
