G04 Layer: BottomPasteMaskLayer*
G04 EasyEDA v6.5.9, 2022-07-27 19:44:39*
G04 76ed2510ce1c47f1be3c58ea14bf5d85,facc937cdf584d0a9360c289f8e84b41,10*
G04 Gerber Generator version 0.2*
G04 Scale: 100 percent, Rotated: No, Reflected: No *
G04 Dimensions in millimeters *
G04 leading zeros omitted , absolute positions ,4 integer and 5 decimal *
%FSLAX45Y45*%
%MOMM*%

%ADD10C,0.0001*%

%LPD*%
G36*
X-9614339Y-6169400D02*
G01*
X-9614339Y-6011920D01*
X-9714339Y-6011920D01*
X-9714339Y-6169400D01*
G37*
G36*
X-9614339Y-5915400D02*
G01*
X-9614339Y-5757920D01*
X-9714339Y-5757920D01*
X-9714339Y-5915400D01*
G37*
G36*
X-9614339Y-5661400D02*
G01*
X-9614339Y-5503920D01*
X-9714339Y-5503920D01*
X-9714339Y-5661400D01*
G37*
G36*
X-9614339Y-6423400D02*
G01*
X-9614339Y-6265920D01*
X-9714339Y-6265920D01*
X-9714339Y-6423400D01*
G37*
G36*
X-9614339Y-5153403D02*
G01*
X-9614339Y-4995923D01*
X-9714339Y-4995923D01*
X-9714339Y-5153403D01*
G37*
G36*
X-9614339Y-5407403D02*
G01*
X-9614339Y-5249923D01*
X-9714339Y-5249923D01*
X-9714339Y-5407403D01*
G37*
G36*
X-9614362Y-4137372D02*
G01*
X-9614362Y-3979898D01*
X-9714367Y-3979898D01*
X-9714367Y-4137372D01*
G37*
G36*
X-9614362Y-4391367D02*
G01*
X-9614362Y-4233890D01*
X-9714367Y-4233890D01*
X-9714367Y-4391367D01*
G37*
G36*
X-9614362Y-4645367D02*
G01*
X-9614362Y-4487890D01*
X-9714367Y-4487890D01*
X-9714367Y-4645367D01*
G37*
G36*
X-9614362Y-4899367D02*
G01*
X-9614362Y-4741890D01*
X-9714367Y-4741890D01*
X-9714367Y-4899367D01*
G37*
G36*
X-9614359Y-3121398D02*
G01*
X-9614359Y-2963915D01*
X-9714354Y-2963915D01*
X-9714354Y-3121398D01*
G37*
G36*
X-9614359Y-3375398D02*
G01*
X-9614359Y-3217915D01*
X-9714354Y-3217915D01*
X-9714354Y-3375398D01*
G37*
G36*
X-9614359Y-3629395D02*
G01*
X-9614359Y-3471915D01*
X-9714354Y-3471915D01*
X-9714354Y-3629395D01*
G37*
G36*
X-9614359Y-3883390D02*
G01*
X-9614359Y-3725908D01*
X-9714354Y-3725908D01*
X-9714354Y-3883390D01*
G37*
G36*
X-9614359Y-2867405D02*
G01*
X-9614359Y-2709923D01*
X-9714349Y-2709923D01*
X-9714349Y-2867405D01*
G37*
G36*
X-352229Y-2964535D02*
G01*
X-352229Y-3122015D01*
X-252229Y-3122015D01*
X-252229Y-2964535D01*
G37*
G36*
X-352229Y-3218535D02*
G01*
X-352229Y-3376015D01*
X-252229Y-3376015D01*
X-252229Y-3218535D01*
G37*
G36*
X-352229Y-3472535D02*
G01*
X-352229Y-3630015D01*
X-252229Y-3630015D01*
X-252229Y-3472535D01*
G37*
G36*
X-352229Y-2710535D02*
G01*
X-352229Y-2868015D01*
X-252229Y-2868015D01*
X-252229Y-2710535D01*
G37*
G36*
X-352229Y-3980533D02*
G01*
X-352229Y-4138013D01*
X-252229Y-4138013D01*
X-252229Y-3980533D01*
G37*
G36*
X-352229Y-3726533D02*
G01*
X-352229Y-3884013D01*
X-252229Y-3884013D01*
X-252229Y-3726533D01*
G37*
G36*
X-352206Y-4996563D02*
G01*
X-352206Y-5154038D01*
X-252201Y-5154038D01*
X-252201Y-4996563D01*
G37*
G36*
X-352206Y-4742568D02*
G01*
X-352206Y-4900046D01*
X-252201Y-4900046D01*
X-252201Y-4742568D01*
G37*
G36*
X-352206Y-4488568D02*
G01*
X-352206Y-4646046D01*
X-252201Y-4646046D01*
X-252201Y-4488568D01*
G37*
G36*
X-352206Y-4234568D02*
G01*
X-352206Y-4392046D01*
X-252201Y-4392046D01*
X-252201Y-4234568D01*
G37*
G36*
X-352209Y-6012538D02*
G01*
X-352209Y-6170020D01*
X-252214Y-6170020D01*
X-252214Y-6012538D01*
G37*
G36*
X-352209Y-5758538D02*
G01*
X-352209Y-5916020D01*
X-252214Y-5916020D01*
X-252214Y-5758538D01*
G37*
G36*
X-352209Y-5504540D02*
G01*
X-352209Y-5662020D01*
X-252214Y-5662020D01*
X-252214Y-5504540D01*
G37*
G36*
X-352209Y-5250545D02*
G01*
X-352209Y-5408028D01*
X-252214Y-5408028D01*
X-252214Y-5250545D01*
G37*
G36*
X-352209Y-6266530D02*
G01*
X-352209Y-6424013D01*
X-252219Y-6424013D01*
X-252219Y-6266530D01*
G37*
G36*
X-8947990Y-2589491D02*
G01*
X-8831988Y-2589491D01*
X-8831988Y-2444493D01*
X-8947990Y-2444493D01*
G37*
G36*
X-8744790Y-2589491D02*
G01*
X-8628788Y-2589491D01*
X-8628788Y-2444493D01*
X-8744790Y-2444493D01*
G37*
G36*
X-7039594Y-2589491D02*
G01*
X-6923592Y-2589491D01*
X-6923592Y-2444493D01*
X-7039594Y-2444493D01*
G37*
G36*
X-6836394Y-2589491D02*
G01*
X-6720392Y-2589491D01*
X-6720392Y-2444493D01*
X-6836394Y-2444493D01*
G37*
G36*
X-5139598Y-2589491D02*
G01*
X-5023596Y-2589491D01*
X-5023596Y-2444493D01*
X-5139598Y-2444493D01*
G37*
G36*
X-4936398Y-2589491D02*
G01*
X-4820396Y-2589491D01*
X-4820396Y-2444493D01*
X-4936398Y-2444493D01*
G37*
G36*
X-3239602Y-2589491D02*
G01*
X-3123600Y-2589491D01*
X-3123600Y-2444493D01*
X-3239602Y-2444493D01*
G37*
G36*
X-3036402Y-2589491D02*
G01*
X-2920400Y-2589491D01*
X-2920400Y-2444493D01*
X-3036402Y-2444493D01*
G37*
G36*
X-1339606Y-2589491D02*
G01*
X-1223604Y-2589491D01*
X-1223604Y-2444493D01*
X-1339606Y-2444493D01*
G37*
G36*
X-1136406Y-2589491D02*
G01*
X-1020404Y-2589491D01*
X-1020404Y-2444493D01*
X-1136406Y-2444493D01*
G37*
G36*
X-1339606Y-4489488D02*
G01*
X-1223604Y-4489488D01*
X-1223604Y-4344489D01*
X-1339606Y-4344489D01*
G37*
G36*
X-1136406Y-4489488D02*
G01*
X-1020404Y-4489488D01*
X-1020404Y-4344489D01*
X-1136406Y-4344489D01*
G37*
G36*
X-3239602Y-4489488D02*
G01*
X-3123600Y-4489488D01*
X-3123600Y-4344489D01*
X-3239602Y-4344489D01*
G37*
G36*
X-3036402Y-4489488D02*
G01*
X-2920400Y-4489488D01*
X-2920400Y-4344489D01*
X-3036402Y-4344489D01*
G37*
G36*
X-5139598Y-4489488D02*
G01*
X-5023596Y-4489488D01*
X-5023596Y-4344489D01*
X-5139598Y-4344489D01*
G37*
G36*
X-4936398Y-4489488D02*
G01*
X-4820396Y-4489488D01*
X-4820396Y-4344489D01*
X-4936398Y-4344489D01*
G37*
G36*
X-7038004Y-4489485D02*
G01*
X-6922002Y-4489485D01*
X-6922002Y-4344487D01*
X-7038004Y-4344487D01*
G37*
G36*
X-6834804Y-4489485D02*
G01*
X-6718802Y-4489485D01*
X-6718802Y-4344487D01*
X-6834804Y-4344487D01*
G37*
G36*
X-8939590Y-4489488D02*
G01*
X-8823589Y-4489488D01*
X-8823589Y-4344489D01*
X-8939590Y-4344489D01*
G37*
G36*
X-8736390Y-4489488D02*
G01*
X-8620389Y-4489488D01*
X-8620389Y-4344489D01*
X-8736390Y-4344489D01*
G37*
G36*
X-1339606Y-6389484D02*
G01*
X-1223604Y-6389484D01*
X-1223604Y-6244485D01*
X-1339606Y-6244485D01*
G37*
G36*
X-1136406Y-6389484D02*
G01*
X-1020404Y-6389484D01*
X-1020404Y-6244485D01*
X-1136406Y-6244485D01*
G37*
G36*
X-3239602Y-6389484D02*
G01*
X-3123600Y-6389484D01*
X-3123600Y-6244485D01*
X-3239602Y-6244485D01*
G37*
G36*
X-3036402Y-6389484D02*
G01*
X-2920400Y-6389484D01*
X-2920400Y-6244485D01*
X-3036402Y-6244485D01*
G37*
G36*
X-5139598Y-6389484D02*
G01*
X-5023596Y-6389484D01*
X-5023596Y-6244485D01*
X-5139598Y-6244485D01*
G37*
G36*
X-4936398Y-6389484D02*
G01*
X-4820396Y-6389484D01*
X-4820396Y-6244485D01*
X-4936398Y-6244485D01*
G37*
G36*
X-7039594Y-6389484D02*
G01*
X-6923592Y-6389484D01*
X-6923592Y-6244485D01*
X-7039594Y-6244485D01*
G37*
G36*
X-6836394Y-6389484D02*
G01*
X-6720392Y-6389484D01*
X-6720392Y-6244485D01*
X-6836394Y-6244485D01*
G37*
G36*
X-8939590Y-6389484D02*
G01*
X-8823589Y-6389484D01*
X-8823589Y-6244485D01*
X-8939590Y-6244485D01*
G37*
G36*
X-8736390Y-6389484D02*
G01*
X-8620389Y-6389484D01*
X-8620389Y-6244485D01*
X-8736390Y-6244485D01*
G37*
G36*
X-1339606Y-8289480D02*
G01*
X-1223604Y-8289480D01*
X-1223604Y-8144482D01*
X-1339606Y-8144482D01*
G37*
G36*
X-1136406Y-8289480D02*
G01*
X-1020404Y-8289480D01*
X-1020404Y-8144482D01*
X-1136406Y-8144482D01*
G37*
G36*
X-3239602Y-8289480D02*
G01*
X-3123600Y-8289480D01*
X-3123600Y-8144482D01*
X-3239602Y-8144482D01*
G37*
G36*
X-3036402Y-8289480D02*
G01*
X-2920400Y-8289480D01*
X-2920400Y-8144482D01*
X-3036402Y-8144482D01*
G37*
G36*
X-5139598Y-8289480D02*
G01*
X-5023596Y-8289480D01*
X-5023596Y-8144482D01*
X-5139598Y-8144482D01*
G37*
G36*
X-4936398Y-8289480D02*
G01*
X-4820396Y-8289480D01*
X-4820396Y-8144482D01*
X-4936398Y-8144482D01*
G37*
G36*
X-7039594Y-8289480D02*
G01*
X-6923592Y-8289480D01*
X-6923592Y-8144482D01*
X-7039594Y-8144482D01*
G37*
G36*
X-6836394Y-8289480D02*
G01*
X-6720392Y-8289480D01*
X-6720392Y-8144482D01*
X-6836394Y-8144482D01*
G37*
G36*
X-8939590Y-8289480D02*
G01*
X-8823589Y-8289480D01*
X-8823589Y-8144482D01*
X-8939590Y-8144482D01*
G37*
G36*
X-8736390Y-8289480D02*
G01*
X-8620389Y-8289480D01*
X-8620389Y-8144482D01*
X-8736390Y-8144482D01*
G37*
G36*
X-2150795Y-1293797D02*
G01*
X-2150795Y-1446197D01*
X-2049195Y-1446197D01*
X-2049195Y-1293797D01*
G37*
G36*
X-2150795Y-2168801D02*
G01*
X-2150795Y-2321201D01*
X-2049195Y-2321201D01*
X-2049195Y-2168801D01*
G37*
G36*
X-8423107Y-2229863D02*
G01*
X-8583107Y-2229863D01*
X-8583107Y-2311864D01*
X-8423107Y-2311864D01*
G37*
G36*
X-8984452Y-2229863D02*
G01*
X-9144452Y-2229863D01*
X-9144452Y-2311864D01*
X-8984452Y-2311864D01*
G37*
G36*
X-8984452Y-2079861D02*
G01*
X-9144452Y-2079861D01*
X-9144452Y-2161862D01*
X-8984452Y-2161862D01*
G37*
G36*
X-8423107Y-2079861D02*
G01*
X-8583107Y-2079861D01*
X-8583107Y-2161862D01*
X-8423107Y-2161862D01*
G37*
G36*
X-6523113Y-2229860D02*
G01*
X-6683113Y-2229860D01*
X-6683113Y-2311862D01*
X-6523113Y-2311862D01*
G37*
G36*
X-7084458Y-2229860D02*
G01*
X-7244458Y-2229860D01*
X-7244458Y-2311862D01*
X-7084458Y-2311862D01*
G37*
G36*
X-7084458Y-2079858D02*
G01*
X-7244458Y-2079858D01*
X-7244458Y-2161860D01*
X-7084458Y-2161860D01*
G37*
G36*
X-6523113Y-2079858D02*
G01*
X-6683113Y-2079858D01*
X-6683113Y-2161860D01*
X-6523113Y-2161860D01*
G37*
G36*
X-4623117Y-2229860D02*
G01*
X-4783117Y-2229860D01*
X-4783117Y-2311862D01*
X-4623117Y-2311862D01*
G37*
G36*
X-5184462Y-2229860D02*
G01*
X-5344462Y-2229860D01*
X-5344462Y-2311862D01*
X-5184462Y-2311862D01*
G37*
G36*
X-5184462Y-2079858D02*
G01*
X-5344462Y-2079858D01*
X-5344462Y-2161860D01*
X-5184462Y-2161860D01*
G37*
G36*
X-4623117Y-2079858D02*
G01*
X-4783117Y-2079858D01*
X-4783117Y-2161860D01*
X-4623117Y-2161860D01*
G37*
G36*
X-2723121Y-2229860D02*
G01*
X-2883120Y-2229860D01*
X-2883120Y-2311862D01*
X-2723121Y-2311862D01*
G37*
G36*
X-3284466Y-2229860D02*
G01*
X-3444466Y-2229860D01*
X-3444466Y-2311862D01*
X-3284466Y-2311862D01*
G37*
G36*
X-3284466Y-2079858D02*
G01*
X-3444466Y-2079858D01*
X-3444466Y-2161860D01*
X-3284466Y-2161860D01*
G37*
G36*
X-2723121Y-2079858D02*
G01*
X-2883120Y-2079858D01*
X-2883120Y-2161860D01*
X-2723121Y-2161860D01*
G37*
G36*
X-823125Y-2229860D02*
G01*
X-983124Y-2229860D01*
X-983124Y-2311862D01*
X-823125Y-2311862D01*
G37*
G36*
X-1384470Y-2229860D02*
G01*
X-1544469Y-2229860D01*
X-1544469Y-2311862D01*
X-1384470Y-2311862D01*
G37*
G36*
X-1384470Y-2079858D02*
G01*
X-1544469Y-2079858D01*
X-1544469Y-2161860D01*
X-1384470Y-2161860D01*
G37*
G36*
X-823125Y-2079858D02*
G01*
X-983124Y-2079858D01*
X-983124Y-2161860D01*
X-823125Y-2161860D01*
G37*
G36*
X-823125Y-4129857D02*
G01*
X-983124Y-4129857D01*
X-983124Y-4211858D01*
X-823125Y-4211858D01*
G37*
G36*
X-1384470Y-4129857D02*
G01*
X-1544469Y-4129857D01*
X-1544469Y-4211858D01*
X-1384470Y-4211858D01*
G37*
G36*
X-1384470Y-3979854D02*
G01*
X-1544469Y-3979854D01*
X-1544469Y-4061856D01*
X-1384470Y-4061856D01*
G37*
G36*
X-823125Y-3979854D02*
G01*
X-983124Y-3979854D01*
X-983124Y-4061856D01*
X-823125Y-4061856D01*
G37*
G36*
X-2723121Y-4129857D02*
G01*
X-2883120Y-4129857D01*
X-2883120Y-4211858D01*
X-2723121Y-4211858D01*
G37*
G36*
X-3284466Y-4129857D02*
G01*
X-3444466Y-4129857D01*
X-3444466Y-4211858D01*
X-3284466Y-4211858D01*
G37*
G36*
X-3284466Y-3979854D02*
G01*
X-3444466Y-3979854D01*
X-3444466Y-4061856D01*
X-3284466Y-4061856D01*
G37*
G36*
X-2723121Y-3979854D02*
G01*
X-2883120Y-3979854D01*
X-2883120Y-4061856D01*
X-2723121Y-4061856D01*
G37*
G36*
X-4623117Y-4129857D02*
G01*
X-4783117Y-4129857D01*
X-4783117Y-4211858D01*
X-4623117Y-4211858D01*
G37*
G36*
X-5184462Y-4129857D02*
G01*
X-5344462Y-4129857D01*
X-5344462Y-4211858D01*
X-5184462Y-4211858D01*
G37*
G36*
X-5184462Y-3979854D02*
G01*
X-5344462Y-3979854D01*
X-5344462Y-4061856D01*
X-5184462Y-4061856D01*
G37*
G36*
X-4623117Y-3979854D02*
G01*
X-4783117Y-3979854D01*
X-4783117Y-4061856D01*
X-4623117Y-4061856D01*
G37*
G36*
X-6523113Y-4129857D02*
G01*
X-6683113Y-4129857D01*
X-6683113Y-4211858D01*
X-6523113Y-4211858D01*
G37*
G36*
X-7084458Y-4129857D02*
G01*
X-7244458Y-4129857D01*
X-7244458Y-4211858D01*
X-7084458Y-4211858D01*
G37*
G36*
X-7084458Y-3979854D02*
G01*
X-7244458Y-3979854D01*
X-7244458Y-4061856D01*
X-7084458Y-4061856D01*
G37*
G36*
X-6523113Y-3979854D02*
G01*
X-6683113Y-3979854D01*
X-6683113Y-4061856D01*
X-6523113Y-4061856D01*
G37*
G36*
X-8423109Y-4129857D02*
G01*
X-8583109Y-4129857D01*
X-8583109Y-4211858D01*
X-8423109Y-4211858D01*
G37*
G36*
X-8984454Y-4129857D02*
G01*
X-9144454Y-4129857D01*
X-9144454Y-4211858D01*
X-8984454Y-4211858D01*
G37*
G36*
X-8984454Y-3979854D02*
G01*
X-9144454Y-3979854D01*
X-9144454Y-4061856D01*
X-8984454Y-4061856D01*
G37*
G36*
X-8423109Y-3979854D02*
G01*
X-8583109Y-3979854D01*
X-8583109Y-4061856D01*
X-8423109Y-4061856D01*
G37*
G36*
X-823125Y-6029853D02*
G01*
X-983124Y-6029853D01*
X-983124Y-6111854D01*
X-823125Y-6111854D01*
G37*
G36*
X-1384470Y-6029853D02*
G01*
X-1544469Y-6029853D01*
X-1544469Y-6111854D01*
X-1384470Y-6111854D01*
G37*
G36*
X-1384470Y-5879851D02*
G01*
X-1544469Y-5879851D01*
X-1544469Y-5961852D01*
X-1384470Y-5961852D01*
G37*
G36*
X-823125Y-5879851D02*
G01*
X-983124Y-5879851D01*
X-983124Y-5961852D01*
X-823125Y-5961852D01*
G37*
G36*
X-2723121Y-6029853D02*
G01*
X-2883120Y-6029853D01*
X-2883120Y-6111854D01*
X-2723121Y-6111854D01*
G37*
G36*
X-3284466Y-6029853D02*
G01*
X-3444466Y-6029853D01*
X-3444466Y-6111854D01*
X-3284466Y-6111854D01*
G37*
G36*
X-3284466Y-5879851D02*
G01*
X-3444466Y-5879851D01*
X-3444466Y-5961852D01*
X-3284466Y-5961852D01*
G37*
G36*
X-2723121Y-5879851D02*
G01*
X-2883120Y-5879851D01*
X-2883120Y-5961852D01*
X-2723121Y-5961852D01*
G37*
G36*
X-4623117Y-6029853D02*
G01*
X-4783117Y-6029853D01*
X-4783117Y-6111854D01*
X-4623117Y-6111854D01*
G37*
G36*
X-5184462Y-6029853D02*
G01*
X-5344462Y-6029853D01*
X-5344462Y-6111854D01*
X-5184462Y-6111854D01*
G37*
G36*
X-5184462Y-5879851D02*
G01*
X-5344462Y-5879851D01*
X-5344462Y-5961852D01*
X-5184462Y-5961852D01*
G37*
G36*
X-4623117Y-5879851D02*
G01*
X-4783117Y-5879851D01*
X-4783117Y-5961852D01*
X-4623117Y-5961852D01*
G37*
G36*
X-6523113Y-6029853D02*
G01*
X-6683113Y-6029853D01*
X-6683113Y-6111854D01*
X-6523113Y-6111854D01*
G37*
G36*
X-7084458Y-6029853D02*
G01*
X-7244458Y-6029853D01*
X-7244458Y-6111854D01*
X-7084458Y-6111854D01*
G37*
G36*
X-7084458Y-5879851D02*
G01*
X-7244458Y-5879851D01*
X-7244458Y-5961852D01*
X-7084458Y-5961852D01*
G37*
G36*
X-6523113Y-5879851D02*
G01*
X-6683113Y-5879851D01*
X-6683113Y-5961852D01*
X-6523113Y-5961852D01*
G37*
G36*
X-8423109Y-6029853D02*
G01*
X-8583109Y-6029853D01*
X-8583109Y-6111854D01*
X-8423109Y-6111854D01*
G37*
G36*
X-8984454Y-6029853D02*
G01*
X-9144454Y-6029853D01*
X-9144454Y-6111854D01*
X-8984454Y-6111854D01*
G37*
G36*
X-8984454Y-5879851D02*
G01*
X-9144454Y-5879851D01*
X-9144454Y-5961852D01*
X-8984454Y-5961852D01*
G37*
G36*
X-8423109Y-5879851D02*
G01*
X-8583109Y-5879851D01*
X-8583109Y-5961852D01*
X-8423109Y-5961852D01*
G37*
G36*
X-823125Y-7929849D02*
G01*
X-983124Y-7929849D01*
X-983124Y-8011850D01*
X-823125Y-8011850D01*
G37*
G36*
X-1384470Y-7929849D02*
G01*
X-1544469Y-7929849D01*
X-1544469Y-8011850D01*
X-1384470Y-8011850D01*
G37*
G36*
X-1384470Y-7779847D02*
G01*
X-1544469Y-7779847D01*
X-1544469Y-7861848D01*
X-1384470Y-7861848D01*
G37*
G36*
X-823125Y-7779847D02*
G01*
X-983124Y-7779847D01*
X-983124Y-7861848D01*
X-823125Y-7861848D01*
G37*
G36*
X-2723121Y-7929849D02*
G01*
X-2883120Y-7929849D01*
X-2883120Y-8011850D01*
X-2723121Y-8011850D01*
G37*
G36*
X-3284466Y-7929849D02*
G01*
X-3444466Y-7929849D01*
X-3444466Y-8011850D01*
X-3284466Y-8011850D01*
G37*
G36*
X-3284466Y-7779847D02*
G01*
X-3444466Y-7779847D01*
X-3444466Y-7861848D01*
X-3284466Y-7861848D01*
G37*
G36*
X-2723121Y-7779847D02*
G01*
X-2883120Y-7779847D01*
X-2883120Y-7861848D01*
X-2723121Y-7861848D01*
G37*
G36*
X-4623117Y-7929849D02*
G01*
X-4783117Y-7929849D01*
X-4783117Y-8011850D01*
X-4623117Y-8011850D01*
G37*
G36*
X-5184462Y-7929849D02*
G01*
X-5344462Y-7929849D01*
X-5344462Y-8011850D01*
X-5184462Y-8011850D01*
G37*
G36*
X-5184462Y-7779847D02*
G01*
X-5344462Y-7779847D01*
X-5344462Y-7861848D01*
X-5184462Y-7861848D01*
G37*
G36*
X-4623117Y-7779847D02*
G01*
X-4783117Y-7779847D01*
X-4783117Y-7861848D01*
X-4623117Y-7861848D01*
G37*
G36*
X-6523113Y-7929849D02*
G01*
X-6683113Y-7929849D01*
X-6683113Y-8011850D01*
X-6523113Y-8011850D01*
G37*
G36*
X-7084458Y-7929849D02*
G01*
X-7244458Y-7929849D01*
X-7244458Y-8011850D01*
X-7084458Y-8011850D01*
G37*
G36*
X-7084458Y-7779847D02*
G01*
X-7244458Y-7779847D01*
X-7244458Y-7861848D01*
X-7084458Y-7861848D01*
G37*
G36*
X-6523113Y-7779847D02*
G01*
X-6683113Y-7779847D01*
X-6683113Y-7861848D01*
X-6523113Y-7861848D01*
G37*
G36*
X-8423109Y-7929849D02*
G01*
X-8583109Y-7929849D01*
X-8583109Y-8011850D01*
X-8423109Y-8011850D01*
G37*
G36*
X-8984454Y-7929849D02*
G01*
X-9144454Y-7929849D01*
X-9144454Y-8011850D01*
X-8984454Y-8011850D01*
G37*
G36*
X-8984454Y-7779847D02*
G01*
X-9144454Y-7779847D01*
X-9144454Y-7861848D01*
X-8984454Y-7861848D01*
G37*
G36*
X-8423109Y-7779847D02*
G01*
X-8583109Y-7779847D01*
X-8583109Y-7861848D01*
X-8423109Y-7861848D01*
G37*
M02*
