G04 Layer: BottomSolderMaskLayer*
G04 EasyEDA v6.5.9, 2022-07-27 19:44:39*
G04 76ed2510ce1c47f1be3c58ea14bf5d85,facc937cdf584d0a9360c289f8e84b41,10*
G04 Gerber Generator version 0.2*
G04 Scale: 100 percent, Rotated: No, Reflected: No *
G04 Dimensions in millimeters *
G04 leading zeros omitted , absolute positions ,4 integer and 5 decimal *
%FSLAX45Y45*%
%MOMM*%

%ADD10C,1.6764*%
%ADD11C,1.9812*%
%ADD12C,2.0828*%
%ADD13C,2.0836*%
%ADD14C,3.0032*%
%ADD15C,2.0832*%
%ADD16C,3.0040*%
%ADD17C,3.7032*%
%ADD18C,0.0113*%

%LPD*%
G36*
X-9719310Y-6174486D02*
G01*
X-9719310Y-6006845D01*
X-9609328Y-6006845D01*
X-9609328Y-6174486D01*
G37*
G36*
X-9719310Y-5920486D02*
G01*
X-9719310Y-5752845D01*
X-9609328Y-5752845D01*
X-9609328Y-5920486D01*
G37*
G36*
X-9719310Y-5666486D02*
G01*
X-9719310Y-5498845D01*
X-9609328Y-5498845D01*
X-9609328Y-5666486D01*
G37*
G36*
X-9719310Y-6428486D02*
G01*
X-9719310Y-6260845D01*
X-9609328Y-6260845D01*
X-9609328Y-6428486D01*
G37*
G36*
X-9719310Y-5158486D02*
G01*
X-9719310Y-4990845D01*
X-9609328Y-4990845D01*
X-9609328Y-5158486D01*
G37*
G36*
X-9719310Y-5412486D02*
G01*
X-9719310Y-5244845D01*
X-9609328Y-5244845D01*
X-9609328Y-5412486D01*
G37*
G36*
X-9719563Y-4142486D02*
G01*
X-9719563Y-3974845D01*
X-9609328Y-3974845D01*
X-9609328Y-4142486D01*
G37*
G36*
X-9719563Y-4396486D02*
G01*
X-9719563Y-4228845D01*
X-9609328Y-4228845D01*
X-9609328Y-4396486D01*
G37*
G36*
X-9719563Y-4650486D02*
G01*
X-9719563Y-4482845D01*
X-9609328Y-4482845D01*
X-9609328Y-4650486D01*
G37*
G36*
X-9719563Y-4904486D02*
G01*
X-9719563Y-4736845D01*
X-9609328Y-4736845D01*
X-9609328Y-4904486D01*
G37*
G36*
X-9719310Y-3126486D02*
G01*
X-9719310Y-2958845D01*
X-9609328Y-2958845D01*
X-9609328Y-3126486D01*
G37*
G36*
X-9719310Y-3380486D02*
G01*
X-9719310Y-3212845D01*
X-9609328Y-3212845D01*
X-9609328Y-3380486D01*
G37*
G36*
X-9719310Y-3634486D02*
G01*
X-9719310Y-3466845D01*
X-9609328Y-3466845D01*
X-9609328Y-3634486D01*
G37*
G36*
X-9719310Y-3888486D02*
G01*
X-9719310Y-3720845D01*
X-9609328Y-3720845D01*
X-9609328Y-3888486D01*
G37*
G36*
X-9719310Y-2872486D02*
G01*
X-9719310Y-2704845D01*
X-9609328Y-2704845D01*
X-9609328Y-2872486D01*
G37*
D10*
G01*
X-9613519Y-6090665D03*
G01*
X-9613544Y-2788665D03*
G01*
X-9613544Y-3042665D03*
G01*
X-9613544Y-3296665D03*
G01*
X-9613544Y-3550665D03*
G01*
X-9613544Y-3804665D03*
G01*
X-9613544Y-4058640D03*
G01*
X-9613544Y-4312640D03*
G01*
X-9613544Y-4566640D03*
G01*
X-9613544Y-4820640D03*
G01*
X-9613519Y-5074665D03*
G01*
X-9613519Y-5328665D03*
G01*
X-9613519Y-5582665D03*
G01*
X-9613519Y-5836665D03*
G01*
X-9613544Y-6344665D03*
G36*
X-357378Y-3126994D02*
G01*
X-357378Y-2959354D01*
X-247142Y-2959354D01*
X-247142Y-3126994D01*
G37*
G36*
X-357378Y-3380994D02*
G01*
X-357378Y-3213354D01*
X-247142Y-3213354D01*
X-247142Y-3380994D01*
G37*
G36*
X-357378Y-3634994D02*
G01*
X-357378Y-3467354D01*
X-247142Y-3467354D01*
X-247142Y-3634994D01*
G37*
G36*
X-357378Y-2872994D02*
G01*
X-357378Y-2705354D01*
X-247142Y-2705354D01*
X-247142Y-2872994D01*
G37*
G36*
X-357378Y-4142994D02*
G01*
X-357378Y-3975354D01*
X-247142Y-3975354D01*
X-247142Y-4142994D01*
G37*
G36*
X-357378Y-3888994D02*
G01*
X-357378Y-3721354D01*
X-247142Y-3721354D01*
X-247142Y-3888994D01*
G37*
G36*
X-357378Y-5158994D02*
G01*
X-357378Y-4991607D01*
X-247142Y-4991607D01*
X-247142Y-5158994D01*
G37*
G36*
X-357378Y-4905247D02*
G01*
X-357378Y-4737607D01*
X-247142Y-4737607D01*
X-247142Y-4905247D01*
G37*
G36*
X-357378Y-4651247D02*
G01*
X-357378Y-4483607D01*
X-247142Y-4483607D01*
X-247142Y-4651247D01*
G37*
G36*
X-357378Y-4397247D02*
G01*
X-357378Y-4229607D01*
X-247142Y-4229607D01*
X-247142Y-4397247D01*
G37*
G36*
X-357378Y-6174994D02*
G01*
X-357378Y-6007354D01*
X-247142Y-6007354D01*
X-247142Y-6174994D01*
G37*
G36*
X-357378Y-5920994D02*
G01*
X-357378Y-5753354D01*
X-247142Y-5753354D01*
X-247142Y-5920994D01*
G37*
G36*
X-357378Y-5666994D02*
G01*
X-357378Y-5499354D01*
X-247142Y-5499354D01*
X-247142Y-5666994D01*
G37*
G36*
X-357378Y-5412994D02*
G01*
X-357378Y-5245354D01*
X-247142Y-5245354D01*
X-247142Y-5412994D01*
G37*
G36*
X-357378Y-6428994D02*
G01*
X-357378Y-6261354D01*
X-247142Y-6261354D01*
X-247142Y-6428994D01*
G37*
G01*
X-353034Y-6345275D03*
G01*
X-353034Y-6091275D03*
G01*
X-353034Y-5837275D03*
G01*
X-353034Y-5583275D03*
G01*
X-353034Y-5329275D03*
G01*
X-353034Y-5075301D03*
G01*
X-353034Y-4821301D03*
G01*
X-353034Y-4567301D03*
G01*
X-353034Y-4313301D03*
G01*
X-353060Y-4059275D03*
G01*
X-353060Y-3805275D03*
G01*
X-353060Y-3551275D03*
G01*
X-353060Y-3297275D03*
G01*
X-353060Y-3043275D03*
G01*
X-353034Y-2789275D03*
D11*
G01*
X-5924042Y-7088886D03*
G01*
X-5924042Y-8104886D03*
G36*
X-8958071Y-2599689D02*
G01*
X-8958071Y-2434336D01*
X-8821928Y-2434336D01*
X-8821928Y-2599689D01*
G37*
G36*
X-8754871Y-2599689D02*
G01*
X-8754871Y-2434336D01*
X-8618728Y-2434336D01*
X-8618728Y-2599689D01*
G37*
G36*
X-7049770Y-2599689D02*
G01*
X-7049770Y-2434336D01*
X-6913371Y-2434336D01*
X-6913371Y-2599689D01*
G37*
G36*
X-6846570Y-2599689D02*
G01*
X-6846570Y-2434336D01*
X-6710171Y-2434336D01*
X-6710171Y-2599689D01*
G37*
G36*
X-5149850Y-2599689D02*
G01*
X-5149850Y-2434336D01*
X-5013452Y-2434336D01*
X-5013452Y-2599689D01*
G37*
G36*
X-4946650Y-2599689D02*
G01*
X-4946650Y-2434336D01*
X-4810252Y-2434336D01*
X-4810252Y-2599689D01*
G37*
G36*
X-3249676Y-2599689D02*
G01*
X-3249676Y-2434336D01*
X-3113531Y-2434336D01*
X-3113531Y-2599689D01*
G37*
G36*
X-3046476Y-2599689D02*
G01*
X-3046476Y-2434336D01*
X-2910331Y-2434336D01*
X-2910331Y-2599689D01*
G37*
G36*
X-1349755Y-2599689D02*
G01*
X-1349755Y-2434336D01*
X-1213357Y-2434336D01*
X-1213357Y-2599689D01*
G37*
G36*
X-1146555Y-2599689D02*
G01*
X-1146555Y-2434336D01*
X-1010157Y-2434336D01*
X-1010157Y-2599689D01*
G37*
G36*
X-1349755Y-4499610D02*
G01*
X-1349755Y-4334255D01*
X-1213357Y-4334255D01*
X-1213357Y-4499610D01*
G37*
G36*
X-1146555Y-4499610D02*
G01*
X-1146555Y-4334255D01*
X-1010157Y-4334255D01*
X-1010157Y-4499610D01*
G37*
G36*
X-3249676Y-4499610D02*
G01*
X-3249676Y-4334255D01*
X-3113531Y-4334255D01*
X-3113531Y-4499610D01*
G37*
G36*
X-3046476Y-4499610D02*
G01*
X-3046476Y-4334255D01*
X-2910331Y-4334255D01*
X-2910331Y-4499610D01*
G37*
G36*
X-5149850Y-4499610D02*
G01*
X-5149850Y-4334255D01*
X-5013452Y-4334255D01*
X-5013452Y-4499610D01*
G37*
G36*
X-4946650Y-4499610D02*
G01*
X-4946650Y-4334255D01*
X-4810252Y-4334255D01*
X-4810252Y-4499610D01*
G37*
G36*
X-7048245Y-4499610D02*
G01*
X-7048245Y-4334255D01*
X-6911847Y-4334255D01*
X-6911847Y-4499610D01*
G37*
G36*
X-6845045Y-4499610D02*
G01*
X-6845045Y-4334255D01*
X-6708647Y-4334255D01*
X-6708647Y-4499610D01*
G37*
G36*
X-8949689Y-4499610D02*
G01*
X-8949689Y-4334255D01*
X-8813545Y-4334255D01*
X-8813545Y-4499610D01*
G37*
G36*
X-8746489Y-4499610D02*
G01*
X-8746489Y-4334255D01*
X-8610345Y-4334255D01*
X-8610345Y-4499610D01*
G37*
G36*
X-1349755Y-6399529D02*
G01*
X-1349755Y-6234429D01*
X-1213357Y-6234429D01*
X-1213357Y-6399529D01*
G37*
G36*
X-1146555Y-6399529D02*
G01*
X-1146555Y-6234429D01*
X-1010157Y-6234429D01*
X-1010157Y-6399529D01*
G37*
G36*
X-3249676Y-6399529D02*
G01*
X-3249676Y-6234429D01*
X-3113531Y-6234429D01*
X-3113531Y-6399529D01*
G37*
G36*
X-3046476Y-6399529D02*
G01*
X-3046476Y-6234429D01*
X-2910331Y-6234429D01*
X-2910331Y-6399529D01*
G37*
G36*
X-5149850Y-6399529D02*
G01*
X-5149850Y-6234429D01*
X-5013452Y-6234429D01*
X-5013452Y-6399529D01*
G37*
G36*
X-4946650Y-6399529D02*
G01*
X-4946650Y-6234429D01*
X-4810252Y-6234429D01*
X-4810252Y-6399529D01*
G37*
G36*
X-7049770Y-6399529D02*
G01*
X-7049770Y-6234429D01*
X-6913371Y-6234429D01*
X-6913371Y-6399529D01*
G37*
G36*
X-6846570Y-6399529D02*
G01*
X-6846570Y-6234429D01*
X-6710171Y-6234429D01*
X-6710171Y-6399529D01*
G37*
G36*
X-8949689Y-6399529D02*
G01*
X-8949689Y-6234429D01*
X-8813545Y-6234429D01*
X-8813545Y-6399529D01*
G37*
G36*
X-8746489Y-6399529D02*
G01*
X-8746489Y-6234429D01*
X-8610345Y-6234429D01*
X-8610345Y-6399529D01*
G37*
G36*
X-1349755Y-8299704D02*
G01*
X-1349755Y-8134350D01*
X-1213357Y-8134350D01*
X-1213357Y-8299704D01*
G37*
G36*
X-1146555Y-8299704D02*
G01*
X-1146555Y-8134350D01*
X-1010157Y-8134350D01*
X-1010157Y-8299704D01*
G37*
G36*
X-3249676Y-8299704D02*
G01*
X-3249676Y-8134350D01*
X-3113531Y-8134350D01*
X-3113531Y-8299704D01*
G37*
G36*
X-3046476Y-8299704D02*
G01*
X-3046476Y-8134350D01*
X-2910331Y-8134350D01*
X-2910331Y-8299704D01*
G37*
G36*
X-5149850Y-8299704D02*
G01*
X-5149850Y-8134350D01*
X-5013452Y-8134350D01*
X-5013452Y-8299704D01*
G37*
G36*
X-4946650Y-8299704D02*
G01*
X-4946650Y-8134350D01*
X-4810252Y-8134350D01*
X-4810252Y-8299704D01*
G37*
G36*
X-7049770Y-8299704D02*
G01*
X-7049770Y-8134350D01*
X-6913371Y-8134350D01*
X-6913371Y-8299704D01*
G37*
G36*
X-6846570Y-8299704D02*
G01*
X-6846570Y-8134350D01*
X-6710171Y-8134350D01*
X-6710171Y-8299704D01*
G37*
G36*
X-8949689Y-8299704D02*
G01*
X-8949689Y-8134350D01*
X-8813545Y-8134350D01*
X-8813545Y-8299704D01*
G37*
G36*
X-8746489Y-8299704D02*
G01*
X-8746489Y-8134350D01*
X-8610345Y-8134350D01*
X-8610345Y-8299704D01*
G37*
D12*
G01*
X-7829981Y-1199006D03*
G01*
X-7829981Y-2215006D03*
G36*
X-2155952Y-1451355D02*
G01*
X-2155952Y-1288795D01*
X-2044192Y-1288795D01*
X-2044192Y-1451355D01*
G37*
G36*
X-2155952Y-2326386D02*
G01*
X-2155952Y-2163826D01*
X-2044192Y-2163826D01*
X-2044192Y-2326386D01*
G37*
D13*
G01*
X-5742000Y-3873982D03*
G01*
X-5742000Y-3619982D03*
G01*
X-5742000Y-3365982D03*
G01*
X-5742000Y-3111982D03*
G01*
X-5742000Y-2857982D03*
G01*
X-5742000Y-2603982D03*
G01*
X-5742000Y-2349982D03*
G01*
X-5742000Y-2095982D03*
G01*
X-5742000Y-1841982D03*
G01*
X-5742000Y-1587982D03*
G01*
X-5742000Y-1333982D03*
G01*
X-5742000Y-1079982D03*
G01*
X-4218000Y-1079982D03*
G01*
X-4218000Y-1333982D03*
G01*
X-4218000Y-1587982D03*
G01*
X-4218000Y-1841982D03*
G01*
X-4218000Y-2095982D03*
G01*
X-4218000Y-2349982D03*
G01*
X-4218000Y-2603982D03*
G01*
X-4218000Y-2857982D03*
G01*
X-4218000Y-3111982D03*
G01*
X-4218000Y-3365982D03*
G01*
X-4218000Y-3619982D03*
G01*
X-4218000Y-3873982D03*
D11*
G01*
X-9159976Y-876985D03*
G01*
X-8397976Y-876985D03*
G01*
X-3461004Y-877011D03*
G01*
X-2699004Y-877011D03*
G01*
X-1561007Y-877011D03*
G01*
X-799007Y-877011D03*
G01*
X-1561007Y-2777007D03*
G01*
X-799007Y-2777007D03*
G01*
X-3461004Y-2777007D03*
G01*
X-2699004Y-2777007D03*
G01*
X-5361000Y-2777007D03*
G01*
X-4599000Y-2777007D03*
G01*
X-7260996Y-2777007D03*
G01*
X-6498996Y-2777007D03*
G01*
X-9160992Y-2777007D03*
G01*
X-8398992Y-2777007D03*
G01*
X-1561007Y-4677003D03*
G01*
X-799007Y-4677003D03*
G01*
X-3461004Y-4677003D03*
G01*
X-2699004Y-4677003D03*
G01*
X-5361000Y-4677003D03*
G01*
X-4599000Y-4677003D03*
G01*
X-7260996Y-4677003D03*
G01*
X-6498996Y-4677003D03*
G01*
X-9160992Y-4677003D03*
G01*
X-8398992Y-4677003D03*
G01*
X-1561007Y-6576999D03*
G01*
X-799007Y-6576999D03*
G01*
X-3461004Y-6576999D03*
G01*
X-2699004Y-6576999D03*
G01*
X-5361000Y-6576999D03*
G01*
X-4599000Y-6576999D03*
G01*
X-7260996Y-6576999D03*
G01*
X-6498996Y-6576999D03*
G01*
X-9160992Y-6576999D03*
G01*
X-8398992Y-6576999D03*
G01*
X-5361000Y-877011D03*
G01*
X-4599000Y-877011D03*
G01*
X-7260996Y-877011D03*
G01*
X-6498996Y-877011D03*
D14*
G01*
X-7577988Y-6905980D03*
G01*
X-8212988Y-7159980D03*
G01*
X-1878990Y-6905980D03*
G01*
X-2513990Y-7159980D03*
D15*
G01*
X-5926988Y-6516115D03*
G01*
X-5926988Y-5865876D03*
G36*
X-8593328Y-2322068D02*
G01*
X-8593328Y-2219705D01*
X-8412987Y-2219705D01*
X-8412987Y-2322068D01*
G37*
G36*
X-9154668Y-2322068D02*
G01*
X-9154668Y-2219705D01*
X-8974328Y-2219705D01*
X-8974328Y-2322068D01*
G37*
G36*
X-9154668Y-2171954D02*
G01*
X-9154668Y-2069592D01*
X-8974328Y-2069592D01*
X-8974328Y-2171954D01*
G37*
G36*
X-8593328Y-2171954D02*
G01*
X-8593328Y-2069592D01*
X-8412987Y-2069592D01*
X-8412987Y-2171954D01*
G37*
D16*
G01*
X-9163507Y-1460449D03*
G01*
X-8528507Y-1206449D03*
G36*
X-6693408Y-2322068D02*
G01*
X-6693408Y-2219705D01*
X-6512813Y-2219705D01*
X-6512813Y-2322068D01*
G37*
G36*
X-7254747Y-2322068D02*
G01*
X-7254747Y-2219705D01*
X-7074154Y-2219705D01*
X-7074154Y-2322068D01*
G37*
G36*
X-7254747Y-2171954D02*
G01*
X-7254747Y-2069592D01*
X-7074154Y-2069592D01*
X-7074154Y-2171954D01*
G37*
G36*
X-6693408Y-2171954D02*
G01*
X-6693408Y-2069592D01*
X-6512813Y-2069592D01*
X-6512813Y-2171954D01*
G37*
G01*
X-7263511Y-1460449D03*
G01*
X-6628511Y-1206449D03*
G36*
X-4793234Y-2322068D02*
G01*
X-4793234Y-2219705D01*
X-4612894Y-2219705D01*
X-4612894Y-2322068D01*
G37*
G36*
X-5354573Y-2322068D02*
G01*
X-5354573Y-2219705D01*
X-5174234Y-2219705D01*
X-5174234Y-2322068D01*
G37*
G36*
X-5354573Y-2171954D02*
G01*
X-5354573Y-2069592D01*
X-5174234Y-2069592D01*
X-5174234Y-2171954D01*
G37*
G36*
X-4793234Y-2171954D02*
G01*
X-4793234Y-2069592D01*
X-4612894Y-2069592D01*
X-4612894Y-2171954D01*
G37*
G01*
X-5363514Y-1460449D03*
G01*
X-4728514Y-1206449D03*
G36*
X-2893313Y-2322068D02*
G01*
X-2893313Y-2219705D01*
X-2712973Y-2219705D01*
X-2712973Y-2322068D01*
G37*
G36*
X-3454654Y-2322068D02*
G01*
X-3454654Y-2219705D01*
X-3274313Y-2219705D01*
X-3274313Y-2322068D01*
G37*
G36*
X-3454654Y-2171954D02*
G01*
X-3454654Y-2069592D01*
X-3274313Y-2069592D01*
X-3274313Y-2171954D01*
G37*
G36*
X-2893313Y-2171954D02*
G01*
X-2893313Y-2069592D01*
X-2712973Y-2069592D01*
X-2712973Y-2171954D01*
G37*
G01*
X-3463518Y-1460449D03*
G01*
X-2828518Y-1206449D03*
G36*
X-993394Y-2322068D02*
G01*
X-993394Y-2219705D01*
X-812800Y-2219705D01*
X-812800Y-2322068D01*
G37*
G36*
X-1554734Y-2322068D02*
G01*
X-1554734Y-2219705D01*
X-1374394Y-2219705D01*
X-1374394Y-2322068D01*
G37*
G36*
X-1554734Y-2171954D02*
G01*
X-1554734Y-2069592D01*
X-1374394Y-2069592D01*
X-1374394Y-2171954D01*
G37*
G36*
X-993394Y-2171954D02*
G01*
X-993394Y-2069592D01*
X-812800Y-2069592D01*
X-812800Y-2171954D01*
G37*
G01*
X-1563522Y-1460449D03*
G01*
X-928522Y-1206449D03*
G36*
X-993394Y-4221987D02*
G01*
X-993394Y-4119626D01*
X-812800Y-4119626D01*
X-812800Y-4221987D01*
G37*
G36*
X-1554734Y-4221987D02*
G01*
X-1554734Y-4119626D01*
X-1374394Y-4119626D01*
X-1374394Y-4221987D01*
G37*
G36*
X-1554734Y-4072128D02*
G01*
X-1554734Y-3969765D01*
X-1374394Y-3969765D01*
X-1374394Y-4072128D01*
G37*
G36*
X-993394Y-4072128D02*
G01*
X-993394Y-3969765D01*
X-812800Y-3969765D01*
X-812800Y-4072128D01*
G37*
G01*
X-1563522Y-3360445D03*
G01*
X-928522Y-3106445D03*
G36*
X-2893313Y-4221987D02*
G01*
X-2893313Y-4119626D01*
X-2712973Y-4119626D01*
X-2712973Y-4221987D01*
G37*
G36*
X-3454654Y-4221987D02*
G01*
X-3454654Y-4119626D01*
X-3274313Y-4119626D01*
X-3274313Y-4221987D01*
G37*
G36*
X-3454654Y-4072128D02*
G01*
X-3454654Y-3969765D01*
X-3274313Y-3969765D01*
X-3274313Y-4072128D01*
G37*
G36*
X-2893313Y-4072128D02*
G01*
X-2893313Y-3969765D01*
X-2712973Y-3969765D01*
X-2712973Y-4072128D01*
G37*
G01*
X-3463518Y-3360445D03*
G01*
X-2828518Y-3106445D03*
G36*
X-4793234Y-4221987D02*
G01*
X-4793234Y-4119626D01*
X-4612894Y-4119626D01*
X-4612894Y-4221987D01*
G37*
G36*
X-5354573Y-4221987D02*
G01*
X-5354573Y-4119626D01*
X-5174234Y-4119626D01*
X-5174234Y-4221987D01*
G37*
G36*
X-5354573Y-4072128D02*
G01*
X-5354573Y-3969765D01*
X-5174234Y-3969765D01*
X-5174234Y-4072128D01*
G37*
G36*
X-4793234Y-4072128D02*
G01*
X-4793234Y-3969765D01*
X-4612894Y-3969765D01*
X-4612894Y-4072128D01*
G37*
G01*
X-5363514Y-3360445D03*
G01*
X-4728514Y-3106445D03*
G36*
X-6693408Y-4221987D02*
G01*
X-6693408Y-4119626D01*
X-6512813Y-4119626D01*
X-6512813Y-4221987D01*
G37*
G36*
X-7254747Y-4221987D02*
G01*
X-7254747Y-4119626D01*
X-7074154Y-4119626D01*
X-7074154Y-4221987D01*
G37*
G36*
X-7254747Y-4072128D02*
G01*
X-7254747Y-3969765D01*
X-7074154Y-3969765D01*
X-7074154Y-4072128D01*
G37*
G36*
X-6693408Y-4072128D02*
G01*
X-6693408Y-3969765D01*
X-6512813Y-3969765D01*
X-6512813Y-4072128D01*
G37*
G01*
X-7263511Y-3360445D03*
G01*
X-6628511Y-3106445D03*
G36*
X-8593328Y-4221987D02*
G01*
X-8593328Y-4119626D01*
X-8412987Y-4119626D01*
X-8412987Y-4221987D01*
G37*
G36*
X-9154668Y-4221987D02*
G01*
X-9154668Y-4119626D01*
X-8974328Y-4119626D01*
X-8974328Y-4221987D01*
G37*
G36*
X-9154668Y-4072128D02*
G01*
X-9154668Y-3969765D01*
X-8974328Y-3969765D01*
X-8974328Y-4072128D01*
G37*
G36*
X-8593328Y-4072128D02*
G01*
X-8593328Y-3969765D01*
X-8412987Y-3969765D01*
X-8412987Y-4072128D01*
G37*
G01*
X-9163507Y-3360445D03*
G01*
X-8528507Y-3106445D03*
G36*
X-993394Y-6122162D02*
G01*
X-993394Y-6019545D01*
X-812800Y-6019545D01*
X-812800Y-6122162D01*
G37*
G36*
X-1554734Y-6122162D02*
G01*
X-1554734Y-6019545D01*
X-1374394Y-6019545D01*
X-1374394Y-6122162D01*
G37*
G36*
X-1554734Y-5972047D02*
G01*
X-1554734Y-5869686D01*
X-1374394Y-5869686D01*
X-1374394Y-5972047D01*
G37*
G36*
X-993394Y-5972047D02*
G01*
X-993394Y-5869686D01*
X-812800Y-5869686D01*
X-812800Y-5972047D01*
G37*
G01*
X-1563522Y-5260441D03*
G01*
X-928522Y-5006441D03*
G36*
X-2893313Y-6122162D02*
G01*
X-2893313Y-6019545D01*
X-2712973Y-6019545D01*
X-2712973Y-6122162D01*
G37*
G36*
X-3454654Y-6122162D02*
G01*
X-3454654Y-6019545D01*
X-3274313Y-6019545D01*
X-3274313Y-6122162D01*
G37*
G36*
X-3454654Y-5972047D02*
G01*
X-3454654Y-5869686D01*
X-3274313Y-5869686D01*
X-3274313Y-5972047D01*
G37*
G36*
X-2893313Y-5972047D02*
G01*
X-2893313Y-5869686D01*
X-2712973Y-5869686D01*
X-2712973Y-5972047D01*
G37*
G01*
X-3463518Y-5260441D03*
G01*
X-2828518Y-5006441D03*
G36*
X-4793234Y-6122162D02*
G01*
X-4793234Y-6019545D01*
X-4612894Y-6019545D01*
X-4612894Y-6122162D01*
G37*
G36*
X-5354573Y-6122162D02*
G01*
X-5354573Y-6019545D01*
X-5174234Y-6019545D01*
X-5174234Y-6122162D01*
G37*
G36*
X-5354573Y-5972047D02*
G01*
X-5354573Y-5869686D01*
X-5174234Y-5869686D01*
X-5174234Y-5972047D01*
G37*
G36*
X-4793234Y-5972047D02*
G01*
X-4793234Y-5869686D01*
X-4612894Y-5869686D01*
X-4612894Y-5972047D01*
G37*
G01*
X-5363514Y-5260441D03*
G01*
X-4728514Y-5006441D03*
G36*
X-6693408Y-6122162D02*
G01*
X-6693408Y-6019545D01*
X-6512813Y-6019545D01*
X-6512813Y-6122162D01*
G37*
G36*
X-7254747Y-6122162D02*
G01*
X-7254747Y-6019545D01*
X-7074154Y-6019545D01*
X-7074154Y-6122162D01*
G37*
G36*
X-7254747Y-5972047D02*
G01*
X-7254747Y-5869686D01*
X-7074154Y-5869686D01*
X-7074154Y-5972047D01*
G37*
G36*
X-6693408Y-5972047D02*
G01*
X-6693408Y-5869686D01*
X-6512813Y-5869686D01*
X-6512813Y-5972047D01*
G37*
G01*
X-7263511Y-5260441D03*
G01*
X-6628511Y-5006441D03*
G36*
X-8593328Y-6122162D02*
G01*
X-8593328Y-6019545D01*
X-8412987Y-6019545D01*
X-8412987Y-6122162D01*
G37*
G36*
X-9154668Y-6122162D02*
G01*
X-9154668Y-6019545D01*
X-8974328Y-6019545D01*
X-8974328Y-6122162D01*
G37*
G36*
X-9154668Y-5972047D02*
G01*
X-9154668Y-5869686D01*
X-8974328Y-5869686D01*
X-8974328Y-5972047D01*
G37*
G36*
X-8593328Y-5972047D02*
G01*
X-8593328Y-5869686D01*
X-8412987Y-5869686D01*
X-8412987Y-5972047D01*
G37*
G01*
X-9163507Y-5260441D03*
G01*
X-8528507Y-5006441D03*
G36*
X-993394Y-8022081D02*
G01*
X-993394Y-7919720D01*
X-812800Y-7919720D01*
X-812800Y-8022081D01*
G37*
G36*
X-1554734Y-8022081D02*
G01*
X-1554734Y-7919720D01*
X-1374394Y-7919720D01*
X-1374394Y-8022081D01*
G37*
G36*
X-1554734Y-7871968D02*
G01*
X-1554734Y-7769605D01*
X-1374394Y-7769605D01*
X-1374394Y-7871968D01*
G37*
G36*
X-993394Y-7871968D02*
G01*
X-993394Y-7769605D01*
X-812800Y-7769605D01*
X-812800Y-7871968D01*
G37*
G01*
X-1563522Y-7160437D03*
G01*
X-928522Y-6906437D03*
G36*
X-2893313Y-8022081D02*
G01*
X-2893313Y-7919720D01*
X-2712973Y-7919720D01*
X-2712973Y-8022081D01*
G37*
G36*
X-3454654Y-8022081D02*
G01*
X-3454654Y-7919720D01*
X-3274313Y-7919720D01*
X-3274313Y-8022081D01*
G37*
G36*
X-3454654Y-7871968D02*
G01*
X-3454654Y-7769605D01*
X-3274313Y-7769605D01*
X-3274313Y-7871968D01*
G37*
G36*
X-2893313Y-7871968D02*
G01*
X-2893313Y-7769605D01*
X-2712973Y-7769605D01*
X-2712973Y-7871968D01*
G37*
G01*
X-3463518Y-7160437D03*
G01*
X-2828518Y-6906437D03*
G36*
X-4793234Y-8022081D02*
G01*
X-4793234Y-7919720D01*
X-4612894Y-7919720D01*
X-4612894Y-8022081D01*
G37*
G36*
X-5354573Y-8022081D02*
G01*
X-5354573Y-7919720D01*
X-5174234Y-7919720D01*
X-5174234Y-8022081D01*
G37*
G36*
X-5354573Y-7871968D02*
G01*
X-5354573Y-7769605D01*
X-5174234Y-7769605D01*
X-5174234Y-7871968D01*
G37*
G36*
X-4793234Y-7871968D02*
G01*
X-4793234Y-7769605D01*
X-4612894Y-7769605D01*
X-4612894Y-7871968D01*
G37*
G01*
X-5363514Y-7160437D03*
G01*
X-4728514Y-6906437D03*
G36*
X-6693408Y-8022081D02*
G01*
X-6693408Y-7919720D01*
X-6512813Y-7919720D01*
X-6512813Y-8022081D01*
G37*
G36*
X-7254747Y-8022081D02*
G01*
X-7254747Y-7919720D01*
X-7074154Y-7919720D01*
X-7074154Y-8022081D01*
G37*
G36*
X-7254747Y-7871968D02*
G01*
X-7254747Y-7769605D01*
X-7074154Y-7769605D01*
X-7074154Y-7871968D01*
G37*
G36*
X-6693408Y-7871968D02*
G01*
X-6693408Y-7769605D01*
X-6512813Y-7769605D01*
X-6512813Y-7871968D01*
G37*
G01*
X-7263511Y-7160437D03*
G01*
X-6628511Y-6906437D03*
G36*
X-8593328Y-8022081D02*
G01*
X-8593328Y-7919720D01*
X-8412987Y-7919720D01*
X-8412987Y-8022081D01*
G37*
G36*
X-9154668Y-8022081D02*
G01*
X-9154668Y-7919720D01*
X-8974328Y-7919720D01*
X-8974328Y-8022081D01*
G37*
G36*
X-9154668Y-7871968D02*
G01*
X-9154668Y-7769605D01*
X-8974328Y-7769605D01*
X-8974328Y-7871968D01*
G37*
G36*
X-8593328Y-7871968D02*
G01*
X-8593328Y-7769605D01*
X-8412987Y-7769605D01*
X-8412987Y-7871968D01*
G37*
G01*
X-9163507Y-7160437D03*
G01*
X-8528507Y-6906437D03*
D17*
G01*
X-7829981Y-2667000D03*
G01*
X-2132507Y-2664485D03*
G01*
X-2132507Y-6464477D03*
G01*
X-7836382Y-6464477D03*
M02*
